<?xml version="1.0" standalone="no"?>
<!DOCTYPE svg PUBLIC "-//W3C//DTD SVG 20010904//EN"
 "http://www.w3.org/TR/2001/REC-SVG-20010904/DTD/svg10.dtd">
<svg version="1.0" xmlns="http://www.w3.org/2000/svg"
 width="400.000000pt" height="50.000000pt" viewBox="0 0 300.000000 300.000000"
 preserveAspectRatio="xMidYMid meet">
<metadata>
Created by potrace 1.10, written by Peter Selinger 2001-2011
</metadata>
<g transform="translate(0.000000,300.000000) scale(0.100000,-0.100000)"
fill="#444444" stroke="none">
<path d="M328 1889 c-20 -11 -25 -39 -7 -39 5 0 7 -5 4 -10 -4 -6 -10 -8 -15
-5 -20 12 5 -37 28 -55 29 -23 50 -27 32 -5 -7 8 -18 15 -25 15 -18 0 -24 30
-11 55 6 11 12 21 12 23 1 2 13 0 28 -4 22 -5 24 -9 15 -25 -5 -11 -14 -17
-19 -14 -4 3 -7 -3 -6 -12 3 -17 26 -26 26 -10 0 4 6 20 15 36 13 27 13 31 -1
45 -18 18 -51 20 -76 5z"/>
<path d="M280 1763 c-40 -13 -61 -29 -90 -70 -18 -24 -31 -45 -29 -47 47 -31
57 -34 104 -25 27 5 54 14 59 19 6 6 20 10 33 10 13 0 23 4 23 10 0 5 18 13
40 16 22 4 40 8 40 10 0 14 -25 53 -42 63 -23 14 -38 2 -38 -33 0 -15 -3 -16
-15 -6 -8 6 -23 9 -35 5 -15 -5 -22 -1 -29 17 -5 15 -5 26 3 30 12 9 -1 9 -24
1z m14 -55 c9 -9 23 -15 31 -12 27 11 17 -32 -10 -44 -36 -17 -56 -15 -71 6
-12 15 -12 15 -7 -5 6 -26 -17 -32 -35 -10 -9 10 -5 22 14 49 27 38 51 43 78
16z m132 -5 c-10 -11 -36 -12 -36 -2 0 5 10 9 22 9 12 0 18 -3 14 -7z m-52
-24 c-8 -14 -24 -10 -24 6 0 9 6 12 15 9 8 -4 12 -10 9 -15z"/>
<path d="M327 1754 c3 -7 9 -14 14 -14 14 0 10 17 -5 23 -10 4 -13 1 -9 -9z"/>
<path d="M495 1709 c-4 -6 -5 -12 -2 -15 2 -3 7 2 10 11 7 17 1 20 -8 4z"/>
<path d="M702 1708 c-19 -19 -16 -88 4 -88 11 0 14 5 9 18 -11 27 -11 52 0 49
6 -1 9 -10 9 -19 -1 -10 3 -15 7 -12 5 3 7 10 4 15 -4 5 1 9 9 9 9 0 16 -9 16
-20 0 -11 5 -19 11 -17 6 1 14 -4 16 -10 3 -7 -2 -13 -11 -13 -26 0 -20 -47 7
-54 26 -6 92 -119 83 -142 -4 -10 -23 -14 -69 -14 l-63 0 -13 48 c-7 26 -15
55 -18 64 -5 15 -1 17 25 12 17 -4 32 -1 36 5 5 7 -4 11 -23 11 -17 0 -31 5
-31 10 0 6 3 10 8 10 4 0 13 9 20 21 11 18 11 20 -5 17 -10 -2 -25 -16 -33
-33 -15 -29 -17 -30 -101 -33 l-85 -3 25 -75 26 -75 150 2 c83 1 156 7 163 12
6 5 12 18 12 29 0 26 -48 118 -65 124 -8 3 -17 26 -20 52 -11 83 -14 90 -46
101 -40 14 -42 14 -57 -1z m-14 -210 c6 -7 13 -29 17 -48 l6 -35 -39 0 c-37 0
-39 1 -29 22 19 42 -27 72 -50 33 -10 -15 -10 -22 2 -34 20 -19 19 -25 -2 -22
-11 2 -21 15 -24 32 -14 64 -14 64 50 64 35 0 63 -5 69 -12z m-58 -43 c0 -8
-4 -15 -9 -15 -13 0 -22 16 -14 24 11 11 23 6 23 -9z"/>
<path d="M541 1689 c-1 -20 -30 -29 -97 -29 l-52 0 -33 -82 c-18 -46 -35 -75
-37 -66 -2 9 4 31 13 48 9 18 14 34 11 37 -2 3 -24 -1 -48 -9 -43 -15 -43 -15
-43 -64 -1 -123 -6 -174 -16 -174 -5 0 -7 5 -4 10 7 11 -9 13 -40 4 -19 -5
-20 -13 -19 -112 2 -157 1 -149 32 -160 l27 -10 -32 -7 -33 -7 0 -73 c0 -81
-6 -74 80 -90 14 -3 86 -17 160 -31 74 -15 145 -28 158 -29 19 -3 87 19 167
55 11 4 53 21 93 36 77 29 90 45 80 99 -3 14 -1 25 4 25 5 0 8 32 6 72 l-3 72
-33 8 c-22 6 -38 5 -46 -2 -16 -12 -108 -41 -114 -35 -3 2 6 9 19 14 13 5 46
19 73 30 27 12 54 21 62 21 23 0 44 31 44 65 0 30 -29 116 -30 88 0 -16 -366
-19 -372 -3 -1 5 -14 6 -28 3 -24 -7 -23 -7 10 -15 19 -4 89 -9 155 -9 66 -1
145 -4 175 -8 52 -6 55 -8 61 -39 6 -29 3 -36 -25 -56 -26 -20 -99 -56 -113
-56 -2 0 -3 6 -2 13 4 34 -3 67 -19 87 -17 21 -21 21 -62 9 -25 -7 -49 -16
-53 -20 -5 -4 -25 -2 -44 3 -61 17 -76 19 -159 25 -80 6 -81 6 -77 32 3 15 1
21 -4 15 -4 -7 -19 -12 -34 -12 -25 0 -25 2 -21 62 5 81 8 92 26 76 11 -8 20
-8 35 -1 11 6 31 11 46 11 22 0 26 -4 25 -32 -1 -18 2 -53 6 -76 6 -39 5 -44
-12 -42 -35 4 -54 0 -54 -11 0 -6 17 -9 42 -7 l43 3 -3 88 c-3 83 -3 87 17 87
29 0 52 47 31 64 -21 16 -22 56 -1 56 9 0 22 -5 28 -11 13 -13 46 35 40 59 -4
15 -5 15 -6 1z m-101 -78 c0 -10 6 -24 14 -31 8 -6 12 -18 10 -25 -6 -14 -81
-32 -91 -22 -3 3 5 26 17 51 22 47 50 62 50 27z m-126 -50 c8 -12 -21 -34 -34
-26 -8 5 -8 11 1 21 13 16 25 18 33 5z m87 -251 c134 -22 187 -35 197 -47 13
-18 16 -81 4 -100 -5 -9 -58 -2 -207 26 l-200 37 -3 57 c-2 43 0 57 11 57 7 0
96 -14 198 -30z m323 -16 c3 -9 6 -33 6 -55 0 -36 -4 -41 -32 -53 -76 -31 -77
-31 -71 12 3 22 0 48 -6 60 -10 18 -7 22 32 35 55 20 64 20 71 1z m-413 -110
c31 -8 67 -14 79 -14 13 0 19 -4 14 -12 -5 -8 1 -9 22 -5 16 3 45 1 64 -4 33
-8 32 -8 -10 -4 l-45 5 34 -15 c27 -12 45 -13 95 -4 33 5 78 13 98 16 21 3 35
9 32 14 -3 5 2 6 10 3 14 -5 90 4 179 22 27 6 27 5 27 -50 0 -55 -1 -57 -31
-63 -22 -4 -27 -8 -17 -15 8 -5 -1 -6 -24 -2 -23 4 -38 2 -38 -4 0 -5 -12 -7
-26 -4 -16 3 -25 1 -21 -5 4 -5 -7 -8 -25 -5 -19 3 -29 1 -25 -6 7 -11 -57
-27 -72 -18 -5 3 -35 1 -67 -5 -55 -10 -66 -9 -164 22 -58 19 -107 36 -110 39
-3 3 -24 14 -48 24 -45 21 -59 46 -48 91 7 28 1 28 117 -1z m-14 -150 c58 -8
127 -24 153 -34 32 -13 61 -17 84 -13 41 6 66 -9 66 -41 0 -17 2 -18 10 -6 8
12 10 9 10 -13 0 -16 -4 -26 -10 -22 -5 3 -10 -3 -10 -14 0 -11 -4 -22 -8 -25
-8 -5 -107 11 -312 52 l-95 18 -3 57 c-2 31 0 57 4 57 3 0 54 -7 111 -16z
m593 -19 c0 -21 -10 -30 -54 -50 -30 -14 -61 -25 -69 -25 -8 0 -21 -7 -28 -17
-12 -14 -15 -11 -20 33 -3 27 -5 50 -4 51 2 4 129 30 153 32 17 1 22 -4 22
-24z m-190 -53 c0 -31 -5 -41 -25 -52 -31 -17 -37 -11 -41 39 -3 36 -1 40 24
44 15 2 30 5 35 6 4 0 7 -16 7 -37z"/>
<path d="M493 1060 c0 -25 2 -35 4 -22 2 12 2 32 0 45 -2 12 -4 2 -4 -23z"/>
<path d="M147 1606 c-30 -45 -12 -79 31 -60 9 4 20 8 25 9 4 2 10 4 15 5 4 1
10 2 15 1 4 0 7 4 7 10 0 11 -5 10 -69 -8 -20 -5 -23 -3 -18 11 4 10 7 21 7
26 0 4 10 6 23 4 12 -2 15 -1 7 2 -8 4 -18 11 -21 16 -3 5 -13 -2 -22 -16z"/>
<path d="M513 1593 c-3 -10 -8 -22 -11 -27 -3 -5 0 -6 6 -2 18 11 35 46 22 46
-6 0 -13 -8 -17 -17z"/>
<path d="M810 1478 c9 -26 7 -28 -25 -34 -19 -3 -33 -10 -30 -14 6 -10 75 13
75 26 0 5 -7 19 -15 30 -14 18 -15 17 -5 -8z"/>
<path d="M456 1441 c-31 -12 -2 -23 39 -15 19 3 35 10 35 15 0 11 -47 11 -74
0z"/>
<path d="M360 1410 c-8 -5 -10 -10 -5 -10 6 0 17 5 25 10 8 5 11 10 5 10 -5 0
-17 -5 -25 -10z"/>
<path d="M1085 1356 c-59 -27 -115 -110 -115 -172 0 -160 173 -253 295 -159
34 25 35 28 35 96 l0 69 -55 0 c-52 0 -55 -1 -55 -25 0 -20 5 -25 25 -25 22 0
25 -4 25 -34 0 -44 -29 -66 -86 -66 -72 0 -124 60 -124 142 0 105 102 170 187
119 31 -19 31 -19 49 0 16 17 16 22 4 30 -57 39 -131 49 -185 25z m185 -207
c0 -6 -4 -7 -10 -4 -5 3 -10 11 -10 16 0 6 5 7 10 4 6 -3 10 -11 10 -16z"/>
<path d="M2162 1313 c4 -46 1 -63 -20 -100 -32 -57 -36 -154 -8 -196 26 -38
72 -61 126 -60 49 0 120 31 142 62 14 19 14 19 26 1 15 -25 101 -23 130 3 19
17 20 17 25 -2 4 -18 12 -20 62 -17 40 2 62 8 70 20 12 15 13 15 18 -4 7 -27
48 -26 74 3 25 27 46 67 40 74 -3 3 -12 -8 -20 -24 -23 -44 -55 -69 -69 -55
-10 10 -9 20 0 45 7 17 15 40 17 50 6 27 51 119 70 142 16 20 16 19 9 -5 -6
-23 -21 -51 -63 -120 -15 -24 -15 -24 3 -10 49 39 98 170 63 170 -22 0 -43
-30 -82 -115 -59 -130 -71 -150 -95 -153 l-23 -4 22 30 c30 43 37 85 16 105
-15 15 -19 15 -45 2 -27 -14 -70 -63 -70 -82 -1 -16 -38 -53 -54 -53 -21 0
-20 5 5 39 14 19 19 39 17 62 -2 28 -7 35 -29 37 -27 3 -56 -24 -102 -98 -47
-72 -139 -106 -211 -76 -66 28 -79 101 -35 211 11 29 12 29 21 9 16 -34 79
-64 135 -64 61 0 110 29 136 81 60 122 -143 191 -250 84 l-33 -33 0 49 c0 30
-4 49 -11 49 -8 0 -10 -19 -7 -57z m247 12 c48 -24 56 -86 17 -128 -57 -61
-189 -46 -227 25 -8 14 -1 26 28 54 63 62 126 79 182 49z m127 -186 c3 -6 1
-29 -6 -50 -8 -24 -16 -35 -21 -28 -10 17 -32 0 -26 -21 6 -23 -21 -36 -30
-15 -6 18 12 66 39 100 21 27 33 31 44 14z m154 -19 c0 -11 -5 -31 -12 -45 -8
-19 -14 -22 -20 -13 -6 10 -10 10 -17 -1 -5 -8 -7 -20 -5 -26 6 -15 -23 -28
-31 -14 -10 15 13 74 41 104 26 28 44 26 44 -5z"/>
<path d="M1362 1145 c3 -92 6 -106 26 -128 31 -33 76 -41 116 -22 19 10 32 12
34 5 2 -5 14 -10 27 -10 l24 0 -2 126 -2 127 -27 3 -28 3 0 -93 c0 -103 -12
-126 -63 -126 -43 0 -57 32 -57 131 0 86 0 87 -26 87 l-26 0 4 -103z m189
-102 c-12 -20 -14 -14 -5 12 4 9 9 14 11 11 3 -2 0 -13 -6 -23z"/>
<path d="M1650 1120 l0 -130 28 0 27 0 -3 84 c-3 75 -1 87 17 105 12 12 34 21
50 21 26 0 41 14 41 41 0 15 -64 10 -87 -6 -19 -13 -22 -13 -27 0 -3 8 -15 15
-26 15 -19 0 -20 -6 -20 -130z m40 71 c0 -11 -4 -23 -10 -26 -6 -4 -10 5 -10
19 0 14 5 26 10 26 6 0 10 -9 10 -19z m-13 -93 c-2 -13 -4 -5 -4 17 -1 22 1
32 4 23 2 -10 2 -28 0 -40z"/>
<path d="M1850 1146 c0 -115 9 -138 64 -156 27 -9 42 -8 70 4 21 9 38 11 41 5
4 -5 15 -9 26 -9 18 0 19 8 19 129 l0 129 -25 0 c-25 0 -25 -1 -25 -89 0 -76
-3 -92 -20 -109 -22 -22 -51 -26 -81 -10 -17 10 -19 22 -19 109 0 98 0 99 -25
99 l-25 0 0 -102z m200 -93 c-1 -28 -3 -34 -10 -22 -8 14 -3 59 6 59 2 0 4
-17 4 -37z"/>
</g>
</svg>
